<svg width="26" height="26" viewBox="0 0 26 26" fill="none"
    xmlns="http://www.w3.org/2000/svg">
    <path d="M22.75 25H3.25C2.65326 25 2.08097 24.7629 1.65901 24.341C1.23705 23.919 1 23.3467 1 22.75L1 3.25C1 2.65326 1.23705 2.08097 1.65901 1.65901C2.08097 1.23705 2.65326 1 3.25 1L22.75 1C23.3467 1 23.919 1.23705 24.341 1.65901C24.7629 2.08097 25 2.65326 25 3.25V22.75C25 23.3467 24.7629 23.919 24.341 24.341C23.919 24.7629 23.3467 25 22.75 25ZM22 4.75C22 4.55109 21.921 4.36032 21.7803 4.21967C21.6397 4.07902 21.4489 4 21.25 4H4.75C4.55109 4 4.36032 4.07902 4.21967 4.21967C4.07902 4.36032 4 4.55109 4 4.75V21.25C4 21.4489 4.07902 21.6397 4.21967 21.7803C4.36032 21.921 4.55109 22 4.75 22H21.25C21.4489 22 21.6397 21.921 21.7803 21.7803C21.921 21.6397 22 21.4489 22 21.25V4.75ZM17.5 19.75H8.5C8.10218 19.75 7.72064 19.592 7.43934 19.3107C7.15804 19.0294 7 18.6478 7 18.25C7 17.8522 7.15804 17.4706 7.43934 17.1893C7.72064 16.908 8.10218 16.75 8.5 16.75H17.5C17.8978 16.75 18.2794 16.908 18.5607 17.1893C18.842 17.4706 19 17.8522 19 18.25C19 18.6478 18.842 19.0294 18.5607 19.3107C18.2794 19.592 17.8978 19.75 17.5 19.75ZM17.5 14.5H8.5C8.10218 14.5 7.72064 14.342 7.43934 14.0607C7.15804 13.7794 7 13.3978 7 13C7 12.6022 7.15804 12.2206 7.43934 11.9393C7.72064 11.658 8.10218 11.5 8.5 11.5H17.5C17.8978 11.5 18.2794 11.658 18.5607 11.9393C18.842 12.2206 19 12.6022 19 13C19 13.3978 18.842 13.7794 18.5607 14.0607C18.2794 14.342 17.8978 14.5 17.5 14.5ZM17.5 9.25H8.5C8.10218 9.25 7.72064 9.09196 7.43934 8.81066C7.15804 8.52936 7 8.14782 7 7.75C7 7.35218 7.15804 6.97064 7.43934 6.68934C7.72064 6.40804 8.10218 6.25 8.5 6.25H17.5C17.8978 6.25 18.2794 6.40804 18.5607 6.68934C18.842 6.97064 19 7.35218 19 7.75C19 8.14782 18.842 8.52936 18.5607 8.81066C18.2794 9.09196 17.8978 9.25 17.5 9.25Z" fill="black" stroke="white" stroke-width="0.6"/>
</svg>
