<svg width="20" height="20" viewBox="0 0 20 20" fill="none"
    xmlns="http://www.w3.org/2000/svg">
    <path d="M6.16248 3.12495C6.4966 1.79395 8.20985 0.512451 10.0001 0.512451C11.7904 0.512451 13.5036 1.79395 13.8377 3.12495H14.3992C15.2964 3.12491 16.1626 3.45386 16.8336 4.04952C17.5046 4.64518 17.9339 5.46619 18.0402 6.35712L19.0792 15.0654C19.1406 15.58 19.0923 16.1017 18.9373 16.5962C18.7824 17.0907 18.5244 17.5468 18.1804 17.9343C17.8363 18.3218 17.4141 18.632 16.9414 18.8444C16.4687 19.0568 15.9564 19.1666 15.4382 19.1666H4.56198C4.04378 19.1666 3.53146 19.0568 3.05879 18.8444C2.58613 18.632 2.16386 18.3218 1.81982 17.9343C1.47578 17.5468 1.21779 17.0907 1.06286 16.5962C0.907927 16.1017 0.85957 15.58 0.920977 15.0654L1.95956 6.35712C2.06588 5.46619 2.49519 4.64518 3.16619 4.04952C3.83719 3.45386 4.70331 3.12491 5.60056 3.12495H6.16248ZM7.63556 3.12495H12.3646C11.9939 2.52958 11.0116 1.88745 10.0001 1.88745C8.98856 1.88745 8.00681 2.52958 7.6351 3.12495H7.63556ZM5.60056 4.49995C5.03975 4.49993 4.49839 4.70556 4.07901 5.07789C3.65963 5.45022 3.39134 5.96341 3.32494 6.52028L2.28635 15.2286C2.24801 15.5502 2.27825 15.8762 2.37507 16.1852C2.47189 16.4942 2.6331 16.7791 2.84807 17.0213C3.06304 17.2635 3.32689 17.4573 3.62223 17.5901C3.91758 17.7229 4.2377 17.7916 4.56152 17.7916H15.4382C15.7621 17.7916 16.0823 17.723 16.3777 17.5902C16.6731 17.4575 16.937 17.2637 17.152 17.0215C17.367 16.7793 17.5282 16.4943 17.6251 16.1853C17.7219 15.8762 17.7522 15.5502 17.7139 15.2286L16.6748 6.52028C16.6084 5.96341 16.3401 5.45022 15.9207 5.07789C15.5014 4.70556 14.96 4.49993 14.3992 4.49995H5.60056ZM5.71056 11.3919C5.67222 11.3101 5.65036 11.2216 5.64623 11.1314C5.6421 11.0412 5.65578 10.951 5.68648 10.8661C5.71719 10.7812 5.76433 10.7031 5.8252 10.6364C5.88607 10.5697 5.95948 10.5156 6.04125 10.4773C6.12301 10.439 6.21153 10.4171 6.30175 10.413C6.39196 10.4088 6.48211 10.4225 6.56704 10.4532C6.65197 10.4839 6.73002 10.5311 6.79673 10.5919C6.86344 10.6528 6.91751 10.7262 6.95585 10.808C7.48844 11.9437 8.68606 12.7041 10.0019 12.7041C11.3169 12.7041 12.5122 11.9437 13.0453 10.808C13.1233 10.6439 13.2631 10.5174 13.4342 10.4561C13.6052 10.3949 13.7936 10.4038 13.9581 10.4809C14.1225 10.5581 14.2498 10.6972 14.312 10.8679C14.3742 11.0386 14.3664 11.227 14.2901 11.3919C13.5306 13.0107 11.8499 14.0791 10.0019 14.0791C8.15302 14.0791 6.47002 13.0103 5.71102 11.3919H5.71056Z" fill="black" stroke="black" stroke-width="0.5"/>
</svg>
