<svg width="14" height="24" viewBox="0 0 14 24" fill="none"
    xmlns="http://www.w3.org/2000/svg">
    <path d="M12.7021 7.75609C12.5628 7.57033 12.3822 7.41956 12.1745 7.31571C11.9668 7.21187 11.7378 7.15781 11.5056 7.15781H9.22464V5.66211H10.7203C11.117 5.66211 11.4975 5.50453 11.778 5.22403C12.0585 4.94353 12.216 4.56309 12.216 4.16641V1.92286C12.216 1.72644 12.1774 1.53195 12.1022 1.35048C12.027 1.16902 11.9168 1.00413 11.778 0.865242C11.6391 0.726354 11.4742 0.616181 11.2927 0.541015C11.1113 0.46585 10.9168 0.427162 10.7203 0.427162H8.62636C7.72202 0.420013 6.83188 0.652223 6.04628 1.10023C5.11147 1.66111 3.98969 2.82028 3.98969 5.13861V7.12042H2.49399C2.29739 7.11489 2.10193 7.15215 1.92115 7.22963C1.74037 7.3071 1.57859 7.42294 1.447 7.56913C1.17809 7.85393 1.01907 8.22497 0.998291 8.61612V10.8597C0.998291 11.2563 1.15587 11.6368 1.43637 11.9173C1.71687 12.1978 2.09731 12.3554 2.49399 12.3554H3.98969V22.0774C3.98969 22.2738 4.02838 22.4683 4.10354 22.6498C4.17871 22.8313 4.28888 22.9961 4.42777 23.135C4.56666 23.2739 4.73154 23.3841 4.91301 23.4593C5.09448 23.5344 5.28897 23.5731 5.48539 23.5731H7.72894C7.92536 23.5731 8.11985 23.5344 8.30132 23.4593C8.48279 23.3841 8.64767 23.2739 8.78656 23.135C8.92545 22.9961 9.03562 22.8313 9.11079 22.6498C9.18595 22.4683 9.22464 22.2738 9.22464 22.0774V12.3554H10.9821C11.3041 12.3517 11.6163 12.2441 11.8723 12.0488C12.1284 11.8534 12.3145 11.5806 12.403 11.271L12.9265 9.02743C13.0007 8.81399 13.0191 8.5851 12.9798 8.36256C12.9405 8.14001 12.845 7.93123 12.7021 7.75609ZM10.9821 10.8597H7.72894V22.0774H5.48539V10.8597H2.49399V8.61612H5.48539V5.13861C5.48539 2.10982 8.02808 1.92286 8.62636 1.92286H10.7203V4.16641H8.77593C7.69155 4.16641 7.72894 5.06383 7.72894 5.06383V8.61612H11.5056L10.9821 10.8597Z" fill="black" stroke="black" stroke-width="0.4"/>
</svg>
