<svg width="20" height="19" viewBox="0 0 20 19" fill="none"
    xmlns="http://www.w3.org/2000/svg">
    <path d="M4.02613 6.56705C4.00898 6.38105 3.99998 6.19291 3.99998 6.0022C3.99998 2.68848 6.68627 0.00219727 9.99998 0.00219727C13.3137 0.00219727 16 2.68848 16 6.0022C16 6.19291 15.9914 6.38105 15.9738 6.56705C18.0151 7.52491 19.4286 9.59834 19.4286 12.0022C19.4286 15.3159 16.7423 18.0022 13.4286 18.0022C12.154 18.0022 10.972 17.6045 9.99998 16.9265C8.99465 17.6285 7.7976 18.0041 6.57141 18.0022C3.2577 18.0022 0.571411 15.3159 0.571411 12.0022C0.571411 9.59834 1.98484 7.52491 4.02613 6.56705ZM4.44698 8.2792C3.79024 8.65384 3.24434 9.19562 2.86474 9.84951C2.48514 10.5034 2.28537 11.2461 2.2857 12.0022C2.2857 14.3692 4.20441 16.2879 6.57141 16.2879C7.35227 16.2879 8.08427 16.0792 8.71427 15.7145C7.87946 14.6574 7.42638 13.3492 7.42855 12.0022C7.42855 11.8115 7.43713 11.6233 7.4547 11.4373C6.09267 10.7973 5.01965 9.67047 4.44698 8.27877V8.2792ZM9.14327 11.9413L9.14284 12.0022C9.14284 14.3692 11.0616 16.2879 13.4286 16.2879C15.7956 16.2879 17.7143 14.3692 17.7143 12.0022C17.7143 10.4079 16.8443 9.01763 15.553 8.2792C14.656 10.4636 12.5071 12.0022 9.99998 12.0022C9.71333 12.0024 9.42702 11.982 9.14327 11.9413ZM9.99998 10.2879C12.367 10.2879 14.2857 8.3692 14.2857 6.0022C14.2857 3.6352 12.367 1.71648 9.99998 1.71648C7.63298 1.71648 5.71427 3.6352 5.71427 6.0022C5.71427 8.3692 7.63298 10.2879 9.99998 10.2879Z" fill="black"/>
</svg>
