<svg width="20" height="25" viewBox="0 0 20 25" fill="none"
    xmlns="http://www.w3.org/2000/svg">
    <path d="M19.5322 9.94975C19.5322 7.44249 17.7301 5.33001 15.3239 4.88195C15.0799 2.15057 12.7788 0.00219727 9.98497 0.00219727C7.19499 0.00219727 4.89062 2.15185 4.64599 4.88176C2.2539 5.32781 0.4375 7.43059 0.4375 9.94975C0.4375 11.2566 0.927489 12.5031 1.8172 13.4602C2.7069 14.4171 3.91467 14.9965 5.21801 15.0917C5.22552 15.0923 5.23284 15.0923 5.24035 15.0924C5.58605 15.5456 6.02532 15.8906 6.54039 16.1002C7.1234 16.3374 7.77892 16.3846 8.43626 16.237C8.72154 16.1729 9.00407 16.0742 9.28184 15.9426V23.2582C9.28184 23.6691 9.5966 24.0021 9.98497 24.0021C10.3731 24.0021 10.6881 23.6691 10.6881 23.2582V15.955C11.2085 16.2015 11.7413 16.3273 12.261 16.3273C12.6621 16.3271 13.0555 16.2522 13.4294 16.1002C13.9444 15.8906 14.3833 15.5458 14.7292 15.093C17.4251 14.9084 19.5322 12.6555 19.5322 9.94975ZM12.8995 14.7976C12.2168 15.0754 11.4077 14.8857 10.6214 14.2633C10.4973 14.165 10.3435 14.1115 10.1851 14.1115C10.1851 14.1115 9.83171 14.1119 9.79435 14.1108C9.63084 14.1051 9.47081 14.1582 9.34172 14.2586C8.94676 14.5656 8.52708 14.7753 8.1281 14.865C7.74651 14.9505 7.39073 14.928 7.0703 14.7976C6.49572 14.5638 6.07695 13.9894 5.88872 13.1936C6.57903 12.7555 7.27977 12.6364 7.85454 12.8703C7.88292 12.8818 7.91203 12.8946 7.94096 12.9085C8.153 13.01 8.40184 12.9986 8.6038 12.8783C8.80595 12.7582 8.93449 12.5449 8.94658 12.3102C8.97752 11.707 9.36497 11.1275 10.0245 10.6803C10.6414 11.1425 11.0005 11.7189 11.0241 12.3021C11.0336 12.5383 11.1614 12.7538 11.3637 12.8759C11.5663 12.9979 11.8166 13.01 12.0299 12.908C12.0581 12.8946 12.0868 12.8818 12.1152 12.8703C12.6898 12.6364 13.3907 12.7555 14.081 13.1936C13.8928 13.9894 13.474 14.5638 12.8995 14.7976ZM15.4431 13.5434C15.4876 13.3592 15.5232 13.168 15.5486 12.9702C15.5803 12.7256 15.4812 12.4821 15.2877 12.329C14.3152 11.5591 13.2468 11.2304 12.2646 11.3805C11.9777 10.5492 11.3313 9.79814 10.4045 9.24498C10.1926 9.11845 9.92985 9.11241 9.71232 9.22868C8.71513 9.76243 8.01933 10.5207 7.71336 11.3816C6.72899 11.2286 5.65728 11.557 4.68206 12.329C4.48852 12.4821 4.38946 12.7256 4.42113 12.9702C4.44659 13.1676 4.48211 13.3584 4.52642 13.5425C2.97204 13.0779 1.84375 11.6296 1.84375 9.94975C1.84375 7.88249 3.52557 6.20049 5.59301 6.20049C6.23552 6.20049 6.87108 6.36711 7.43102 6.68205C7.76939 6.87248 8.19804 6.75237 8.38847 6.4138C8.5789 6.07543 8.45897 5.64678 8.12041 5.45635C7.48906 5.10131 6.78795 4.88378 6.06908 4.81676C6.33678 2.89489 7.9926 1.40844 9.98497 1.40844C12.1656 1.40844 13.9395 3.18255 13.9395 5.36315C13.9395 5.3778 13.9389 5.39244 13.9388 5.40709C13.936 5.42595 13.9336 5.44481 13.9325 5.46422C13.9307 5.49645 13.9318 5.52831 13.9342 5.55962C13.8972 6.31584 13.6476 7.03746 13.2056 7.65782C12.9804 7.97404 13.0542 8.41313 13.3704 8.63853C13.4942 8.7266 13.6366 8.76908 13.7778 8.76908C13.9975 8.76908 14.2138 8.66636 14.3509 8.47392C14.8166 7.82042 15.1242 7.08379 15.2621 6.30705C16.9124 6.70751 18.126 8.19523 18.126 9.94975C18.126 11.6365 16.9995 13.0807 15.4431 13.5434Z" fill="black" stroke="black" stroke-width="0.3"/>
</svg>
