<svg width="24" height="25" viewBox="0 0 24 25" fill="none"
    xmlns="http://www.w3.org/2000/svg">
    <g clip-path="url(#clip0)">
        <path d="M16.3042 6.75889C16.3042 6.17582 16.1306 5.59771 15.8022 5.08696C15.1245 4.03392 14.7664 2.77505 14.7664 1.44642V0.524333C14.7664 0.235957 14.5325 0.00219727 14.2442 0.00219727H9.75589C9.46757 0.00219727 9.23376 0.235957 9.23376 0.524333V1.44648C9.23376 2.7751 8.87557 4.03397 8.19784 5.08712C7.86942 5.59771 7.69586 6.17582 7.69586 6.75894C7.69586 7.63947 8.07822 8.46815 8.77653 9.11779V13.2008C8.77653 14.9784 10.2224 16.4246 11.9997 16.4246C13.7773 16.4246 15.2235 14.9784 15.2235 13.2008V9.11779C15.9218 8.4681 16.3042 7.63942 16.3042 6.75889ZM14.1793 13.2007C14.1793 14.4025 13.2015 15.3803 11.9997 15.3803C10.7982 15.3803 9.8208 14.4025 9.8208 13.2007V8.54611C9.8208 7.95442 10.0573 7.40482 10.4583 7.00424C10.5764 7.7488 11.2227 8.31992 11.9999 8.31992C12.7768 8.31992 13.4227 7.74954 13.5414 7.00565C13.9528 7.41735 14.1793 7.96439 14.1793 8.54611V13.2007H14.1793ZM11.483 6.75878V4.68069C11.483 4.39565 11.7148 4.16377 11.9999 4.16377C12.2849 4.16377 12.5168 4.39565 12.5168 4.68069V6.75878C12.5168 7.04382 12.2849 7.2757 11.9999 7.2757C11.7148 7.2757 11.483 7.04382 11.483 6.75878ZM15.0776 7.58397C14.9245 7.09217 14.6538 6.64136 14.2792 6.26667C14.0645 6.05197 13.8236 5.87142 13.5611 5.72605V4.68074C13.5611 3.81989 12.8607 3.11955 11.9999 3.11955C11.1391 3.11955 10.4387 3.81989 10.4387 4.68074V5.7249C9.70462 6.13008 9.16656 6.79899 8.92236 7.58412C8.80274 7.32128 8.74003 7.04303 8.74003 6.75899C8.74003 6.37115 8.85307 5.99871 9.07597 5.65222C9.86236 4.43032 10.278 2.97602 10.278 1.44658V1.04647H13.722V1.44648C13.722 2.97591 14.1377 4.43022 14.9239 5.65196C15.1469 5.99866 15.2599 6.37105 15.2599 6.75889C15.2599 7.04293 15.1972 7.32118 15.0776 7.58397Z" fill="black"/>
        <path d="M11.9999 11.0994C11.2308 11.0994 10.605 11.7252 10.605 12.4943V13.2008C10.605 13.9699 11.2307 14.5956 11.9999 14.5956C12.769 14.5956 13.3947 13.9699 13.3947 13.2008V12.4943C13.3947 11.7252 12.769 11.0994 11.9999 11.0994ZM12.3505 13.2008C12.3505 13.3941 12.1932 13.5514 11.9999 13.5514C11.8066 13.5514 11.6492 13.3941 11.6492 13.2008V12.4943C11.6492 12.301 11.8066 12.1437 11.9999 12.1437C12.1932 12.1437 12.3505 12.301 12.3505 12.4943V13.2008Z" fill="black"/>
        <path d="M10.3376 17.7525H12.0832C12.3715 17.7525 12.6053 17.5188 12.6053 17.2304C12.6053 16.942 12.3715 16.7083 12.0832 16.7083H10.3376C10.0492 16.7083 9.81543 16.942 9.81543 17.2304C9.81543 17.5188 10.0492 17.7525 10.3376 17.7525Z" fill="black"/>
        <path d="M13.6625 17.9583H11.9169C11.6286 17.9583 11.3948 18.192 11.3948 18.4804C11.3948 18.7688 11.6286 19.0025 11.9169 19.0025H13.6625C13.9508 19.0025 14.1847 18.7688 14.1847 18.4804C14.1847 18.192 13.9508 17.9583 13.6625 17.9583Z" fill="black"/>
        <path d="M10.3376 20.2524H12.0832C12.3715 20.2524 12.6053 20.0186 12.6053 19.7303C12.6053 19.4419 12.3715 19.2081 12.0832 19.2081H10.3376C10.0492 19.2081 9.81543 19.4419 9.81543 19.7303C9.81543 20.0186 10.0492 20.2524 10.3376 20.2524Z" fill="black"/>
        <path d="M13.6625 20.4581H11.9169C11.6286 20.4581 11.3948 20.6919 11.3948 20.9803C11.3948 21.2686 11.6286 21.5024 11.9169 21.5024H13.6625C13.9508 21.5024 14.1847 21.2686 14.1847 20.9803C14.1847 20.6919 13.9508 20.4581 13.6625 20.4581Z" fill="black"/>
        <path d="M12.6053 22.2301C12.6053 21.9417 12.3715 21.7079 12.0832 21.7079H10.3376C10.0492 21.7079 9.81543 21.9417 9.81543 22.2301C9.81543 22.5185 10.0492 22.7522 10.3376 22.7522H12.0832C12.3715 22.7522 12.6053 22.5185 12.6053 22.2301Z" fill="black"/>
        <path d="M13.6625 22.9579H11.9169C11.6286 22.9579 11.3948 23.1917 11.3948 23.4801C11.3948 23.7685 11.6286 24.0022 11.9169 24.0022H13.6625C13.9508 24.0022 14.1847 23.7685 14.1847 23.4801C14.1847 23.1917 13.9508 22.9579 13.6625 22.9579Z" fill="black"/>
    </g>
    <defs>
        <clipPath id="clip0">
            <rect width="24" height="24" fill="white" transform="translate(0 0.00219727)"/>
        </clipPath>
    </defs>
</svg>
