<svg width="24" height="24" viewBox="0 0 24 24" fill="none"
    xmlns="http://www.w3.org/2000/svg">
    <path d="M15.9998 11.9999C15.9998 10.8956 15.6093 9.95295 14.8282 9.17185C14.0471 8.39076 13.1044 8.00022 12.0001 8.00022C10.8959 8.00022 9.95319 8.39076 9.1721 9.17185C8.39101 9.95295 8.00046 10.8956 8.00046 11.9999C8.00046 13.1042 8.39101 14.0468 9.1721 14.8279C9.95319 15.609 10.8959 15.9996 12.0001 15.9996C13.1044 15.9996 14.0471 15.609 14.8282 14.8279C15.6093 14.0468 15.9998 13.1042 15.9998 11.9999ZM18.1558 11.9999C18.1558 13.7085 17.5567 15.1616 16.3586 16.3592C15.1604 17.5568 13.7073 18.1559 11.9993 18.1565C10.2912 18.157 8.83814 17.558 7.63996 16.3592C6.44178 15.1604 5.84269 13.7073 5.84269 11.9999C5.84269 10.2925 6.44178 8.83935 7.63996 7.64059C8.83814 6.44182 10.2912 5.84273 11.9993 5.84332C13.7073 5.8439 15.1604 6.44299 16.3586 7.64059C17.5567 8.83818 18.1558 10.2913 18.1558 11.9999ZM19.8437 5.59394C19.8437 5.99003 19.7031 6.32866 19.422 6.60983C19.1408 6.891 18.8022 7.03158 18.4061 7.03158C18.01 7.03158 17.6714 6.891 17.3902 6.60983C17.109 6.32866 16.9684 5.99003 16.9684 5.59394C16.9684 5.19785 17.109 4.85922 17.3902 4.57805C17.6714 4.29688 18.01 4.1563 18.4061 4.1563C18.8022 4.1563 19.1408 4.29688 19.422 4.57805C19.7031 4.85922 19.8437 5.19785 19.8437 5.59394ZM11.9993 2.15602C11.9263 2.15602 11.5279 2.1534 10.804 2.14815C10.0801 2.1429 9.53056 2.1429 9.15547 2.14815C8.78039 2.1534 8.27784 2.16915 7.64783 2.1954C7.01783 2.22165 6.48144 2.27386 6.03869 2.35203C5.59593 2.43019 5.22347 2.52645 4.9213 2.64078C4.40038 2.84903 3.94217 3.1512 3.54666 3.54729C3.15116 3.94338 2.84899 4.40159 2.64015 4.92193C2.52582 5.2241 2.42956 5.59656 2.3514 6.03932C2.27323 6.48207 2.22102 7.01846 2.19477 7.64846C2.16852 8.27847 2.15277 8.78102 2.14752 9.15611C2.14227 9.53119 2.14227 10.0807 2.14752 10.8046C2.15277 11.5285 2.15539 11.927 2.15539 11.9999C2.15539 12.0728 2.15277 12.4712 2.14752 13.1952C2.14227 13.9191 2.14227 14.4686 2.14752 14.8437C2.15277 15.2188 2.16852 15.7213 2.19477 16.3513C2.22102 16.9813 2.27323 17.5177 2.3514 17.9605C2.42956 18.4032 2.52582 18.7757 2.64015 19.0778C2.8484 19.5988 3.15057 20.057 3.54666 20.4525C3.94275 20.848 4.40096 21.1502 4.9213 21.359C5.22347 21.4733 5.59593 21.5696 6.03869 21.6477C6.48144 21.7259 7.01783 21.7781 7.64783 21.8044C8.27784 21.8306 8.78039 21.8464 9.15547 21.8516C9.53056 21.8569 10.0801 21.8569 10.804 21.8516C11.5279 21.8464 11.9263 21.8438 11.9993 21.8438C12.0722 21.8438 12.4706 21.8464 13.1945 21.8516C13.9184 21.8569 14.468 21.8569 14.843 21.8516C15.2181 21.8464 15.7207 21.8306 16.3507 21.8044C16.9807 21.7781 17.5171 21.7259 17.9598 21.6477C18.4026 21.5696 18.775 21.4733 19.0772 21.359C19.5981 21.1507 20.0564 20.8486 20.4519 20.4525C20.8474 20.0564 21.1495 19.5982 21.3584 19.0778C21.4727 18.7757 21.569 18.4032 21.6471 17.9605C21.7253 17.5177 21.7775 16.9813 21.8037 16.3513C21.83 15.7213 21.8457 15.2188 21.851 14.8437C21.8562 14.4686 21.8562 13.9191 21.851 13.1952C21.8457 12.4712 21.8431 12.0728 21.8431 11.9999C21.8431 11.927 21.8457 11.5285 21.851 10.8046C21.8562 10.0807 21.8562 9.53119 21.851 9.15611C21.8457 8.78102 21.83 8.27847 21.8037 7.64846C21.7775 7.01846 21.7253 6.48207 21.6471 6.03932C21.569 5.59656 21.4727 5.2241 21.3584 4.92193C21.1501 4.40101 20.8479 3.9428 20.4519 3.54729C20.0558 3.15179 19.5976 2.84962 19.0772 2.64078C18.775 2.52645 18.4026 2.43019 17.9598 2.35203C17.5171 2.27386 16.9807 2.22165 16.3507 2.1954C15.7207 2.16915 15.2181 2.1534 14.843 2.14815C14.468 2.1429 13.9184 2.1429 13.1945 2.14815C12.4706 2.1534 12.0722 2.15602 11.9993 2.15602ZM24 11.9999C24 14.3852 23.9741 16.0363 23.9221 16.9533C23.8177 19.1198 23.172 20.7969 21.9849 21.9846C20.7978 23.1723 19.1207 23.8181 16.9536 23.9219C16.0371 23.9738 14.386 23.9998 12.0001 23.9998C9.61427 23.9998 7.96313 23.9738 7.0467 23.9219C4.88018 23.8175 3.20307 23.1717 2.01539 21.9846C0.827712 20.7975 0.181955 19.1204 0.07812 16.9533C0.0262028 16.0369 0.000244141 14.3857 0.000244141 11.9999C0.000244141 9.61403 0.0262028 7.96288 0.07812 7.04646C0.182538 4.87993 0.828296 3.20283 2.01539 2.01515C3.20249 0.827468 4.87959 0.18171 7.0467 0.0778759C7.96313 0.0259586 9.61427 0 12.0001 0C14.386 0 16.0371 0.0259586 16.9536 0.0778759C19.1201 0.182294 20.7972 0.828051 21.9849 2.01515C23.1726 3.20225 23.8183 4.87935 23.9221 7.04646C23.9741 7.96288 24 9.61403 24 11.9999Z" fill="black"/>
</svg>
