<svg width="56" height="56" viewBox="0 0 56 56" fill="none"
    xmlns="http://www.w3.org/2000/svg">
    <path d="M21.889 8.38139C21.889 5.00333 24.6175 2.2749 27.9955 2.2749C31.3736 2.2749 34.102 5.00333 34.102 8.38139C34.102 14.1631 27.9955 14.8127 27.9955 18.5805C27.9955 14.8127 21.889 14.1631 21.889 8.38139ZM42.9369 18.1907L42.6121 18.1258C42.2873 18.0608 41.9625 18.0608 41.6377 17.9959C41.4428 17.9959 41.1829 17.9959 40.9231 18.0608C37.2202 18.1258 32.5429 19.555 30.5291 18.5805C32.9327 19.7498 34.4918 25.5965 37.8049 28.26L37.8698 28.3249L38.0647 28.5198C38.1297 28.5198 38.1297 28.5848 38.1947 28.5848C38.2596 28.6497 38.3246 28.6497 38.3895 28.7147C38.5844 28.8446 38.8443 28.9745 39.0392 29.1045C41.9625 30.4687 45.4055 29.2344 46.8347 26.3111C48.1989 23.3878 46.9646 19.9447 44.0413 18.5156C43.7165 18.4506 43.3267 18.3207 42.9369 18.1907ZM11.9498 18.5805C9.02644 19.9447 7.79215 23.4527 9.15636 26.376C10.5206 29.2994 14.0286 30.5336 16.9519 29.1694C17.2117 29.0395 17.4066 28.9096 17.6015 28.7796C17.6665 28.7147 17.7314 28.7147 17.7964 28.6497C17.8614 28.6497 17.8614 28.5848 17.9263 28.5848L18.1212 28.3899L18.1862 28.3249C21.4993 25.6614 23.0584 19.8148 25.462 18.6455C23.3832 19.6199 18.7708 18.1907 15.068 18.1258C14.8081 18.1258 14.6132 18.0608 14.3534 18.0608C14.0286 18.0608 13.7037 18.1258 13.3789 18.1907L13.0541 18.2557V18.3207C12.6643 18.3207 12.2746 18.4506 11.9498 18.5805Z" fill="url(#paint0_linear)"/>
    <path d="M21.4993 37.1599H34.4918C33.3225 39.4986 30.8539 41.1226 27.9955 41.1226C25.1372 41.1226 22.7336 39.4986 21.4993 37.1599Z" fill="black"/>
    <path d="M29.6846 22.8681H26.1116C27.151 21.309 27.9306 19.8149 27.9306 18.5806C27.9956 19.8149 28.7101 21.244 29.6846 22.8681Z" fill="black"/>
    <path d="M33.3225 28.4548H22.4737C22.9934 27.4803 23.643 26.5709 24.2277 25.6614H31.5685C32.1531 26.5709 32.7378 27.5453 33.3225 28.4548Z" fill="black"/>
    <path d="M35.2714 33.8468C35.2714 33.9767 35.2714 34.1716 35.2714 34.3015H20.7197C20.7197 34.1716 20.7197 33.9767 20.7197 33.8468C20.7197 33.522 20.7197 33.1972 20.7847 32.8724C20.7847 32.7424 20.7847 32.6775 20.8496 32.5476C20.8496 32.4826 20.8496 32.4176 20.8496 32.3527L20.9146 31.9629V31.8979C20.9796 31.6381 21.0445 31.4432 21.1095 31.1833H34.7517C34.8166 31.4432 34.9465 31.703 35.0115 31.9629L35.0765 32.3527C35.2064 32.8724 35.2714 33.3921 35.2714 33.8468Z" fill="black"/>
    <path d="M13.0541 46.5795C12.9892 46.5795 12.8592 46.5795 12.7943 46.5795C12.7943 46.5795 12.7943 46.5795 12.7293 46.5795H12.6643C11.9498 46.5795 11.3001 46.8393 10.8454 47.2941V43.2664C10.8454 43.2014 10.7804 43.2014 10.7804 43.2014C10.7155 43.2014 10.7155 43.2014 10.7155 43.2664C10.0009 44.3707 8.63666 44.4357 8.63666 46.3846V52.621C8.63666 53.2706 9.15636 53.7254 9.74102 53.7254H10.7155C10.7804 53.7254 10.7804 53.6604 10.7804 53.6604V53.0108C11.2352 53.4655 11.8848 53.7254 12.5994 53.7254H12.6643C12.6643 53.7254 12.6643 53.7254 12.7293 53.7254C14.2884 53.7254 15.5877 52.1663 15.5877 50.1524C15.6526 48.2685 14.4833 46.7744 13.0541 46.5795ZM12.1446 52.1663H12.0797C11.6249 52.1663 11.1702 51.8414 10.9753 51.3867C10.8454 51.1269 10.7804 50.867 10.7804 50.6072V49.6327C10.7804 49.178 10.9104 48.8532 11.1702 48.5284C11.4301 48.2685 11.7549 48.0736 12.0797 48.0736H12.1446C12.7943 48.0736 13.314 48.7882 13.4439 49.6977C13.4439 49.8276 13.4439 49.9575 13.4439 50.1524C13.5089 51.2568 12.9242 52.1663 12.1446 52.1663Z" fill="black"/>
    <path d="M32.0882 48.2684L33.7772 44.2407H36.1808L33.1925 50.1523V53.4654H30.9188V50.1523L27.9305 44.2407H30.3342L32.0882 48.2684Z" fill="#FFC800"/>
    <path d="M34.3619 49.9575C34.3619 49.2429 34.4918 48.6582 34.7517 48.1385C35.0115 47.6188 35.4013 47.1641 35.921 46.9042C36.4407 46.6443 37.0253 46.4495 37.675 46.4495C38.7144 46.4495 39.4939 46.7743 40.0786 47.4239C40.6632 48.0735 40.9881 48.918 40.9881 50.0224V50.0874C40.9881 51.1268 40.6632 51.9713 40.0786 52.6209C39.4939 53.2706 38.7144 53.5304 37.675 53.5304C36.7005 53.5304 35.921 53.2706 35.3363 52.6859C34.7517 52.1012 34.4268 51.3217 34.3619 50.2823V49.9575ZM36.5056 50.0874C36.5056 50.737 36.6356 51.1917 36.8305 51.4516C37.0253 51.7764 37.3502 51.9063 37.7399 51.9063C38.5195 51.9063 38.9093 51.3217 38.9093 50.1523V49.9575C38.9093 48.7232 38.5195 48.1385 37.7399 48.1385C37.0253 48.1385 36.6356 48.6582 36.5706 49.6976L36.5056 50.0874Z" fill="#FFC800"/>
    <path d="M45.3405 52.6858C44.8858 53.2705 44.3011 53.5304 43.5216 53.5304C42.742 53.5304 42.2223 53.3355 41.8325 52.8807C41.4428 52.426 41.2479 51.8413 41.2479 50.9968V46.5793H43.3916V50.9968C43.3916 51.5815 43.6515 51.9063 44.2361 51.9063C44.7558 51.9063 45.0807 51.7114 45.2755 51.3866V46.5793H47.4193V53.4004H45.4055L45.3405 52.6858Z" fill="#FFC800"/>
    <path d="M22.6036 49.243C22.4737 48.5934 22.1489 48.0087 21.6941 47.619C21.1095 47.0343 20.265 46.6445 19.2905 46.6445C17.4066 46.6445 15.9125 48.1387 15.9125 50.0226V50.3474C15.9125 52.2313 17.4066 53.7255 19.2256 53.7255H19.2905C20.8496 53.7255 21.5642 53.0758 22.2139 52.4262V52.3612V52.2963L21.1095 51.5817C21.1095 51.5817 21.1095 51.5817 21.0445 51.5817H20.9796C20.5248 51.9065 20.265 52.2963 19.2905 52.2313C18.7059 52.1664 18.1862 51.5817 18.1212 50.8671H22.5387C22.6036 50.8671 22.6036 50.8671 22.6036 50.8021C22.6036 50.8021 22.6036 50.8021 22.6036 50.7372C22.6036 50.6072 22.6036 50.4773 22.6036 50.3474V50.0226C22.6686 49.6978 22.6036 49.5029 22.6036 49.243ZM18.1212 49.4379C18.1862 49.1131 18.3161 48.7883 18.511 48.5934C18.7708 48.3336 19.0956 48.1387 19.4205 48.1387H19.4854C20.0701 48.1387 20.5898 48.6584 20.7197 49.4379H18.1212Z" fill="black"/>
    <path d="M29.6196 49.243C29.4897 48.5934 29.1649 48.0087 28.7101 47.619C28.1255 47.0343 27.281 46.6445 26.3065 46.6445C24.4226 46.6445 22.9285 48.1387 22.9285 50.0226V50.3474C22.9285 52.2313 24.4226 53.7255 26.2416 53.7255H26.3065C27.8656 53.7255 28.5802 53.0758 29.2298 52.4262V52.3612V52.2963L28.1255 51.5817C28.1255 51.5817 28.1255 51.5817 28.0605 51.5817H27.9956C27.5408 51.9065 27.281 52.2963 26.3065 52.2313C25.7219 52.1664 25.2022 51.5817 25.1372 50.8671H29.5547C29.6196 50.8671 29.6196 50.8671 29.6196 50.8021C29.6196 50.8021 29.6196 50.8021 29.6196 50.7372C29.6196 50.6072 29.6196 50.4773 29.6196 50.3474V50.0226C29.6846 49.6978 29.6196 49.5029 29.6196 49.243ZM25.1372 49.4379C25.2022 49.1131 25.3321 48.7883 25.527 48.5934C25.7868 48.3336 26.1116 48.1387 26.4365 48.1387H26.5014C27.0861 48.1387 27.6058 48.6584 27.7357 49.4379H25.1372Z" fill="black"/>
    <defs>
        <linearGradient id="paint0_linear" x1="39.4757" y1="34.2154" x2="16.5171" y2="11.2568" gradientUnits="userSpaceOnUse">
            <stop stop-color="#FFAF00"/>
            <stop offset="1" stop-color="#FFDC00"/>
        </linearGradient>
    </defs>
</svg>
