<svg width="32" height="24" viewBox="0 0 32 24" fill="none"
    xmlns="http://www.w3.org/2000/svg">
    <path d="M32 11.9001C32 11.8215 32 11.7322 31.9964 11.6286C31.9929 11.3393 31.9857 11.0143 31.9786 10.6679C31.95 9.67148 31.9 8.67863 31.8214 7.74291C31.7143 6.45363 31.5571 5.37863 31.3429 4.57148C31.1167 3.72916 30.6735 2.96094 30.0574 2.34362C29.4413 1.72629 28.674 1.28147 27.8321 1.05363C26.8214 0.782198 24.8429 0.614341 22.0571 0.51077C20.7321 0.46077 19.3143 0.428627 17.8964 0.41077C17.4 0.403627 16.9393 0.400056 16.525 0.396484H15.475C15.0607 0.400056 14.6 0.403627 14.1036 0.41077C12.6857 0.428627 11.2679 0.46077 9.94286 0.51077C7.15714 0.617913 5.175 0.78577 4.16786 1.05363C3.32572 1.28091 2.5581 1.72554 1.94194 2.34295C1.32578 2.96037 0.882715 3.72888 0.657143 4.57148C0.439286 5.37863 0.285714 6.45363 0.178571 7.74291C0.1 8.67863 0.05 9.67148 0.0214286 10.6679C0.0107143 11.0143 0.00714284 11.3393 0.00357144 11.6286C0.00357144 11.7322 0 11.8215 0 11.9001V12.1001C0 12.1786 0 12.2679 0.00357144 12.3715C0.00714287 12.6608 0.0142857 12.9858 0.0214286 13.3322C0.05 14.3286 0.1 15.3215 0.178571 16.2572C0.285714 17.5465 0.442857 18.6215 0.657143 19.4286C1.11429 21.1393 2.45714 22.4893 4.16786 22.9465C5.175 23.2179 7.15714 23.3858 9.94286 23.4893C11.2679 23.5393 12.6857 23.5715 14.1036 23.5893C14.6 23.5965 15.0607 23.6001 15.475 23.6036H16.525C16.9393 23.6001 17.4 23.5965 17.8964 23.5893C19.3143 23.5715 20.7321 23.5393 22.0571 23.4893C24.8429 23.3822 26.825 23.2143 27.8321 22.9465C29.5429 22.4893 30.8857 21.1429 31.3429 19.4286C31.5607 18.6215 31.7143 17.5465 31.8214 16.2572C31.9 15.3215 31.95 14.3286 31.9786 13.3322C31.9893 12.9858 31.9929 12.6608 31.9964 12.3715C31.9964 12.2679 32 12.1786 32 12.1001V11.9001ZM29.4286 12.0858C29.4286 12.1608 29.4286 12.2429 29.425 12.3393C29.4214 12.6179 29.4143 12.9251 29.4071 13.2572C29.3821 14.2072 29.3321 15.1572 29.2571 16.0393C29.1607 17.1893 29.025 18.1322 28.8571 18.7643C28.6357 19.5893 27.9857 20.2429 27.1643 20.4608C26.4143 20.6608 24.525 20.8215 21.9571 20.9179C20.6571 20.9679 19.2571 21.0001 17.8607 21.0179C17.3714 21.0251 16.9179 21.0286 16.5107 21.0286H15.4893L14.1393 21.0179C12.7429 21.0001 11.3464 20.9679 10.0429 20.9179C7.475 20.8179 5.58214 20.6608 4.83571 20.4608C4.01429 20.2393 3.36429 19.5893 3.14286 18.7643C2.975 18.1322 2.83929 17.1893 2.74286 16.0393C2.66786 15.1572 2.62143 14.2072 2.59286 13.2572C2.58214 12.9251 2.57857 12.6143 2.575 12.3393C2.575 12.2429 2.57143 12.1572 2.57143 12.0858V11.9143C2.57143 11.8393 2.57143 11.7572 2.575 11.6608C2.57857 11.3822 2.58571 11.0751 2.59286 10.7429C2.61786 9.79291 2.66786 8.84291 2.74286 7.96077C2.83929 6.81077 2.975 5.86791 3.14286 5.23577C3.36429 4.41077 4.01429 3.7572 4.83571 3.53934C5.58571 3.33934 7.475 3.17863 10.0429 3.0822C11.3429 3.0322 12.7429 3.00006 14.1393 2.9822C14.6286 2.97506 15.0821 2.97148 15.4893 2.97148H16.5107L17.8607 2.9822C19.2571 3.00006 20.6536 3.0322 21.9571 3.0822C24.525 3.1822 26.4179 3.33934 27.1643 3.53934C27.9857 3.76077 28.6357 4.41077 28.8571 5.23577C29.025 5.86791 29.1607 6.81077 29.2571 7.96077C29.3321 8.84291 29.3786 9.79291 29.4071 10.7429C29.4179 11.0751 29.4214 11.3858 29.425 11.6608C29.425 11.7572 29.4286 11.8429 29.4286 11.9143V12.0858ZM12.8214 16.7858L21.1071 11.9643L12.8214 7.21434V16.7858Z" fill="black"/>
</svg>
